<?xml version="1.0" encoding="UTF-8"?><svg id="Layer_1" xmlns="http://www.w3.org/2000/svg" viewBox="0 0 378.27 249.99"><defs><style>.cls-1{fill:#f5333f;}.cls-2{fill:#f9ea35;}.cls-3{fill:#ead7c5;}.cls-4{fill:#fff;}.cls-5{fill:#fbb475;}.cls-6{fill:#ffce2d;}.cls-7{fill:#96d9d5;}.cls-8{fill:#bae5e3;}.cls-9{fill:#cbebe9;}.cls-10{fill:#d9d8d6;}.cls-11{fill:#dcf2f0;}.cls-12{fill:#2d2a26;}.cls-13{fill:#3bbfbb;}.cls-14{fill:#7b2e00;}</style></defs><path class="cls-13" d="M359.55,34.52v-.04c0-3.39,2.74-6.24,6.2-6.24s6.2,2.82,6.2,6.2v.03c0,3.39-2.74,6.24-6.2,6.24s-6.2-2.82-6.2-6.2Zm11.69-.04v-.03c0-3.03-2.35-5.53-5.49-5.53-3.1,0-5.49,2.53-5.49,5.56v.04c0,3.03,2.35,5.52,5.49,5.52,3.1,0,5.49-2.53,5.49-5.56Zm-7.91-3.28h2.85c1.39,0,2.42,.68,2.42,2,0,1.03-.61,1.68-1.46,1.93l1.68,2.39h-1.46l-1.5-2.17h-1.32v2.17h-1.21v-6.31Zm2.75,3.14c.82,0,1.28-.43,1.28-1.03,0-.68-.46-1.03-1.28-1.03h-1.53v2.07h1.53Z"/><path class="cls-13" d="M278.66,230.26c-.39-.18-40.15-13.7-40.15-13.7,0,0-3.39-.36-1.6,3.73,.88,2,2.54,3.97,4.1,5.55-1.93-1.17-3.79-2.31-5.42-3.31,1.23,2.88,3.65,5.64,4.08,6.22,.51,.68,13.77,9.57,17.19,11.67,3.42,2.11,6.38,1.27,7.23,.64,.85-.63,.05-1.36-.23-1.56-.28-.19-4.96-2.81-4.96-2.81,0,0-.54-.23-6.58-3.95,4.93,2.16,10.85,4.66,13.49,5.68,4.8,1.85,8.03,1.26,8.96,.26,.93-1-.26-1.73-.65-1.91-.39-.18-1.93-.78-1.93-.78,0,0-3.03-1.14-21.46-9.21,22.15,9.03,29.78,8.52,30.38,6.27,.59-2.24-2.05-2.6-2.44-2.78"/><path class="cls-9" d="M218.68,187.24s21.44-40.66,29.4-72.82c12.98-52.45,10.12-79.84,12.6-80.19,2.68-.23,8.13,1.57,12.13,13.23,4,11.66,3.43,34.42-3.01,57.85-3.12,11.36-15.28,44.91-51.12,81.94"/><path class="cls-13" d="M216.02,187.24s38.23-42.63,72.93-103.38c19.95-34.92,37.66-71.08,39.62-74.07,1.96-2.99,10.16-18.41,14.72,.18,13.39,54.63-40.21,116.16-63.14,135.87-31.53,27.1-64.13,41.41-64.13,41.41"/><path class="cls-7" d="M215.72,185.63s32.37-9.47,83.4-52.97c29.34-25.01,50.52-48.88,61.74-59.37,3.24-3.02,15.15-13.3,13.22,4.94-5.68,53.61-74.58,88.68-101.66,98.99-37.23,14.18-56.71,8.4-56.71,8.4"/><path class="cls-8" d="M230.92,187.05s27.36-2.39,50.05-12.14c29.88-12.84,82.4-44.13,87.64-39.06,3.13,3.02-.59,16.01-17.65,27.92-39.04,27.25-109.44,32.74-120.03,23.28"/><path class="cls-11" d="M223.34,183.12s2.59,7.17,26.32,8.03c32.5,1.19,93.06-8.77,95.93-2.07,1.71,4-6.74,14.53-27.09,18.91-46.55,10.01-89.06-12.05-95.16-24.87"/><path class="cls-3" d="M210.53,217.57c-3-2.43-14.26-39.39-17.81-48.49l-78.08-5.75c36.38,3,36.9,23.15,60.37,52.16h.07c10.47,14.8,24.39,19.47,41.31,19.47,12.03,0,18.12-2.59,27.61-8.61-7.22-1.02-26.1-2.79-33.48-8.78"/><path class="cls-2" d="M244.37,196.06c-2.47-3.24-5.49-6.38-9-9.23-1.97-1.6-4.03-3.01-6.12-4.24-1.82-2.86-3.04-6.24-3.5-9.73-1.14-7.72-4.18-14.83-8.66-20.8-9.19-13.13-24.42-21.71-41.66-21.71-20.22,0-32.34,13.13-40.52,30.22,2.83,.69,.3,.11,3.09,.9,19.22,5.49,36.29,12.92,52.92,23.19-4.1,9.42,3.23,24.87,16.51,35.65,7.38,5.99,18.37,8.59,25.66,8.82,10.65,.34,19.47-4.34,21.16-8.45-.61-8.45-1.93-14.2-9.87-24.63"/><path class="cls-6" d="M209.24,143.09c-7.6-6.78-17.26-11.3-27.92-12.53,6.86-3.52,13.43-6.89,13.57-6.97,.28-.18,2.25-.71,1.56-2.56-.69-1.85-6.56-1.66-22.46,7.83,13.17-8.35,15.36-9.57,15.36-9.57,0,0,1.11-.63,1.39-.82,.28-.18,1.1-.9,.29-1.67-.81-.77-3.34-1-6.79,.96-1.9,1.08-6.15,3.69-9.67,5.93,4.2-3.65,4.59-3.89,4.59-3.89,0,0,3.29-2.6,3.48-2.79,.19-.19,.73-.87,0-1.34-.72-.47-3.06-.93-5.44,1.14-2.38,2.07-12.88,13.09-13.58,14.79-11.84,1.01-30.49,12.89-28.72,28.97,2.83,.68,.76,.24,3.54,1.03,0,0,12.15,4.03,14.95,5.37l7.41,2.96c-.64-2.17-1.02-6.25-.95-8.62,.11-4.13,6.95-19.37,22.88-22.25,1.92-.22,3.87-.35,5.85-.35,7.35,0,14.34,1.57,20.64,4.37"/><path class="cls-6" d="M226.23,180.12c-.1,9.1-2.84,17.56-7.5,24.65-3.53,5.38-8.16,9.98-13.57,13.47,.81,.75,1.61,1.51,2.4,2.28,4.99-4.08,9.18-9.08,12.33-14.75,4.04-7.29,6.35-15.68,6.35-24.61,0-.35,0-.69-.01-1.04"/><path class="cls-5" d="M173.74,177.1s7.39-11.2,13.69-12.78c6.29-1.58,9.93-1.35,13.34,2.79,3.41,4.14,3.83,11.06,3.11,14.95-4.02-.98-7.15-2.45-11.08-2.64-3.93-.2-17.66,.25-17.66,.25l-1.39-2.57Z"/><path class="cls-4" d="M141.24,160.1c-3.88,3.79-10.09,3.72-13.88-.16-3.79-3.88-3.72-10.09,.16-13.88,3.88-3.79,10.09-3.72,13.88,.16,3.79,3.87,3.72,10.09-.16,13.88"/><path class="cls-10" d="M129.51,144.56c1.3-.74,2.72-1.16,4.17-1.27,0,0-6.3,.8-7.21,7.61-.9,6.76,5.7,11.79,8.11,11.99-2.62,.05-5.25-.93-7.22-2.95-3.79-3.88-3.72-10.09,.16-13.88,.61-.6,1.28-1.1,1.99-1.51"/><path class="cls-12" d="M141.8,151.86c.89,2.63-.52,5.48-3.15,6.37-2.63,.89-5.48-.52-6.37-3.15-.89-2.63,.52-5.48,3.15-6.37,2.63-.89,5.48,.52,6.37,3.15"/><path class="cls-4" d="M140.5,151.91c.3,.88-.17,1.84-1.06,2.14-.88,.3-1.84-.17-2.14-1.06-.3-.88,.17-1.84,1.06-2.14,.88-.3,1.84,.17,2.14,1.06"/><path class="cls-14" d="M182.23,190.91l-17.14-12.25-57.38-15.87c-.86-.24-1.53,.77-.96,1.47,22.54,4.44,34.72,12.54,48.58,23.97,4.5,4.6,16.91,8.02,26.9,2.69"/><path class="cls-1" d="M191.88,180.98c-.49-4.46-3.86,1.4-18.15-5.82-.67-.35-2.05-1.07-2.07-1.07-.01,0-19.5-8.66-35.13-13.12-2.61-.75-5.25-1.44-7.9-2.08-15.38-3.73-31.45-5.7-47.98-5.7-26.06,0-50.97,4.91-73.87,13.85,17.28-4.78,35.48-7.34,54.28-7.34,22.31,0,43.78,3.6,63.86,10.25,2.83,.94,5.64,1.93,8.42,2.99,9.62,3.66,18.39,6.96,29.71,14.61,.39,.31,2.86,2.03,7.95,4.43,1.56,.7,5.85,1.27,9.53-.31,5.94-2.55,11.86-6.02,11.34-10.68"/><path class="cls-4" d="M184.97,174.96c-6.2,6.2-16.25,6.2-22.45,0-6.2-6.2-6.2-16.25,0-22.45,6.2-6.2,16.25-6.2,22.45,0,6.2,6.2,6.2,16.25,0,22.45"/><path class="cls-10" d="M158.37,159.73c.61-2.34,1.74-4.47,3.25-6.26,0,0-6.2,8.2,.65,16.95,6.79,8.69,20.08,6.74,23.05,4.17-2.9,3.09-7.01,5.01-11.58,5.01-8.77,0-15.88-7.11-15.88-15.88,0-1.38,.18-2.73,.51-4.01"/><path class="cls-14" d="M181.01,185.17c-4.53,2.42-13.01,1.4-17.79,.72-3.11-.44-8.26-3.38-11.44-5.07,.03,.37,8.42,6.95,8.88,7.32,1.17,.93,4.1,1.85,7.18,1.88,3.96,.04,7.86-.15,16.59-4.86,1.38-.72,.88-2.14-3.43,0"/><path class="cls-12" d="M185.79,161.68c1.47,4.35-.86,9.08-5.21,10.55-4.35,1.47-9.08-.86-10.55-5.22-1.47-4.35,.86-9.08,5.22-10.55,4.35-1.47,9.08,.86,10.55,5.21"/><path class="cls-4" d="M183.63,161.76c.49,1.46-.29,3.05-1.75,3.54s-3.05-.29-3.54-1.75c-.49-1.46,.29-3.05,1.75-3.54,1.46-.49,3.05,.29,3.54,1.75"/></svg>